<?xml version="1.0" encoding="utf-8"?>
<!-- Generator: Adobe Illustrator 27.2.0, SVG Export Plug-In . SVG Version: 6.00 Build 0)  -->
<svg version="1.0" id="katman_1" xmlns="http://www.w3.org/2000/svg" xmlns:xlink="http://www.w3.org/1999/xlink" x="0px" y="0px"
	 viewBox="0 0 410 169" style="enable-background:new 0 0 410 169;" xml:space="preserve">
<style type="text/css">
	.st0{fill:#B3CE13;}
	.st1{fill:#FFFFFF;}
	.st2{fill:#F2F9AC;}
	.st3{fill:#0C71EA;}
	.st4{fill:#B6DBFF;}
	.st5{fill:#F2B906;}
	.st6{fill:#FFE8A9;}
	.st7{fill:#EE3F6C;}
	.st8{fill:#FFCADC;}
	.st9{fill:#AD0AEA;}
	.st10{fill:#EBC0FF;}
</style>
<path class="st9" d="M346.43,166.81H64.09c-31.67,0-57.34-25.67-57.34-57.34V59.7c0-31.67,25.67-57.34,57.34-57.34h282.34
	c31.67,0,57.34,25.67,57.34,57.34v49.78C403.77,141.14,378.1,166.81,346.43,166.81z"/>
<g>
	<path class="st1" d="M89.45,95.74h-5.31l-4.59-8.71h-3.3v8.71h-4.59V77.29c0-1.76,0.41-3.04,1.22-3.84c0.81-0.8,2.18-1.2,4.09-1.2
		h3.89c2.33,0,4.19,0.71,5.56,2.13s2.06,3.22,2.06,5.4c0,1.58-0.41,2.95-1.24,4.11c-0.82,1.16-1.84,1.95-3.05,2.39L89.45,95.74z
		 M82.97,82.19c0.63-0.67,0.94-1.51,0.94-2.51c0-1-0.3-1.81-0.91-2.43c-0.61-0.62-1.41-0.92-2.43-0.92H78.3
		c-1.36,0-2.05,0.69-2.05,2.08v4.79h4.32C81.54,83.2,82.34,82.87,82.97,82.19z"/>
	<path class="st1" d="M107.04,87.33H96.05c0,1.72,0.27,2.97,0.81,3.76c0.54,0.79,1.62,1.19,3.25,1.19c1.06,0,1.84-0.33,2.34-1.01
		c0.51-0.67,0.76-1.31,0.76-1.93h3.86c0,2.35-0.63,4.08-1.9,5.18c-1.26,1.1-2.94,1.65-5.02,1.65c-2.08,0-3.69-0.3-4.83-0.89
		c-2.35-1.21-3.53-4.42-3.53-9.64c0-3.1,0.67-5.37,2.01-6.81c1.34-1.44,3.39-2.16,6.14-2.16c4.77,0,7.16,2.65,7.16,7.95
		C107.11,85.19,107.08,86.09,107.04,87.33z M96.15,84.39h7.06c0-1.45-0.28-2.51-0.82-3.17c-0.55-0.66-1.39-0.99-2.53-0.99
		s-2.04,0.34-2.71,1.01C96.49,81.91,96.15,82.96,96.15,84.39z"/>
	<path class="st1" d="M123.97,95.74h-2.87l-1.32-2.28l-4.59,2.47c-2.55,0-4.27-0.92-5.15-2.77c-0.44-0.9-0.74-1.88-0.91-2.92
		c-0.17-1.04-0.25-2.13-0.25-3.27c0-1.13,0.01-1.97,0.03-2.51c0.02-0.54,0.08-1.17,0.17-1.88c0.09-0.71,0.21-1.31,0.38-1.8
		c0.17-0.48,0.4-0.98,0.71-1.5c0.31-0.52,0.68-0.93,1.12-1.24c0.99-0.68,2.28-1.02,3.86-1.02h4.52l4.29-0.26V95.74z M119.68,89.74
		v-8.84h-3.27c-1.21,0-2.05,0.46-2.52,1.39c-0.47,0.92-0.71,2.3-0.71,4.14s0.22,3.13,0.68,3.88s1.3,1.12,2.56,1.12L119.68,89.74z"/>
	<path class="st1" d="M141.56,90.53v0.49c-0.13,1.65-0.83,2.89-2.1,3.73c-1.26,0.84-2.84,1.25-4.73,1.25
		c-2.79,0-4.75-0.51-5.88-1.52c-1.03-0.92-1.55-2.29-1.55-4.09V90h3.89c0,1.01,0.26,1.71,0.79,2.08c0.53,0.38,1.44,0.56,2.74,0.56
		c1.76,0,2.64-0.64,2.64-1.91c0-1.05-0.31-1.76-0.92-2.11c-0.29-0.18-0.65-0.31-1.09-0.4l-3.33-0.56c-2.9-0.46-4.36-2.28-4.36-5.44
		c0-1.76,0.64-3.13,1.93-4.11c1.29-0.98,2.92-1.47,4.9-1.47c4.51,0,6.76,1.95,6.76,5.84v0.43h-3.73c-0.04-1.03-0.32-1.74-0.83-2.11
		c-0.51-0.37-1.22-0.56-2.13-0.56c-0.91,0-1.6,0.18-2.06,0.54c-0.46,0.36-0.69,0.76-0.69,1.2c0,1.25,0.51,1.97,1.52,2.15l3.99,0.73
		C140.15,85.38,141.56,87.27,141.56,90.53z"/>
	<path class="st1" d="M159.64,86.24c0,4.07-0.77,6.8-2.31,8.18c-1.3,1.19-3.18,1.78-5.64,1.78c-3.15,0-5.27-0.92-6.37-2.77
		c-1.03-1.69-1.55-4.09-1.55-7.19c0-2.9,0.52-5.18,1.55-6.83c1.14-1.85,3.23-2.77,6.25-2.77c3.02,0,5.12,0.81,6.3,2.43
		C159.05,80.68,159.64,83.07,159.64,86.24z M155.35,87.23v-1.71c0-1.63-0.24-2.87-0.71-3.73s-1.46-1.29-2.95-1.29
		c-2.42,0-3.63,1.63-3.63,4.88v1.72c0,3.5,1.21,5.25,3.63,5.25c1.56,0,2.58-0.58,3.07-1.75C155.15,89.67,155.35,88.55,155.35,87.23z
		"/>
	<path class="st1" d="M177.69,95.74h-4.29V83.7c0-1.08-0.22-1.81-0.66-2.21c-0.44-0.4-1.06-0.59-1.85-0.59l-3.86,1.62v13.23h-4.29
		V76.9h3.2l0.99,2.24l5.28-2.44c1.47,0,2.76,0.54,3.85,1.63c1.09,1.09,1.63,2.68,1.63,4.77V95.74z"/>
	<path class="st1" d="M184.16,69.7c1.03,0,1.7,0.16,2.01,0.48c0.31,0.32,0.46,0.99,0.46,2.01s-0.16,1.69-0.48,2.01
		c-0.32,0.32-0.99,0.48-2.01,0.48c-1.02,0-1.69-0.17-2.01-0.49c-0.32-0.33-0.48-1-0.48-2.01c0-1.01,0.16-1.68,0.48-2
		C182.45,69.86,183.13,69.7,184.16,69.7z M186.27,95.74h-4.29V77.59h4.29V95.74z"/>
	<path class="st1" d="M205.68,95.74h-4.29V83.7c0-1.08-0.22-1.81-0.66-2.21s-1.06-0.59-1.85-0.59l-3.86,1.62v13.23h-4.29V76.9h3.2
		l0.99,2.24l5.28-2.44c1.47,0,2.76,0.54,3.84,1.63c1.09,1.09,1.63,2.68,1.63,4.77V95.74z"/>
	<path class="st1" d="M219.21,77.03l4.29-0.26v18.12c0,2.09-0.59,3.69-1.77,4.8c-1.18,1.11-2.92,1.67-5.23,1.67
		c-1.78,0-3.34-0.35-4.69-1.06c-0.7-0.35-1.26-0.88-1.68-1.58s-0.63-1.54-0.63-2.51l3.99-0.2c0,0.62,0.22,1.05,0.66,1.32
		c0.44,0.26,1.19,0.4,2.26,0.4s1.79-0.26,2.18-0.79c0.38-0.53,0.58-1.29,0.58-2.28l0.17-2.84l-4.62,2.47
		c-2.53,0-4.24-0.86-5.12-2.57c-0.79-1.52-1.19-3.38-1.19-5.58c0-2.62,0.2-4.47,0.59-5.54c0.42-1.19,1.01-2.05,1.78-2.57
		c0.99-0.66,2.29-0.99,3.89-0.99H219.21z M219.21,88.09v-7.19h-3.27c-1.23,0-2.08,0.42-2.54,1.25c-0.46,0.84-0.69,2-0.69,3.5
		c0,1.5,0.24,2.56,0.71,3.19s1.31,0.94,2.52,0.94L219.21,88.09z"/>
</g>
<g>
	<g>
		<path class="st10" d="M23.08,45.66c0,0-0.34-9.33,3.56-14.68c3.9-5.35,14.64-11.34,18.22-7.56c3.84,4.48-10.41,8.52-11.06,18.47
			C33.55,49,24.71,55.13,23.08,45.66z"/>
		<path class="st10" d="M26.96,53.93c0,0-4.86,1.56-3.9,5.87c0.97,4.3,2.27,6.65,5.63,4.95C32.06,63.05,30.11,51.74,26.96,53.93z"/>
	</g>
	<path class="st10" d="M384.75,126.79c0,0-3.01,20.35-11.1,23.69c-8.09,3.34-12.31,2.38-11.58-2.82c0.72-5.19,9.24-2.41,12.92-13.88
		C378.66,122.31,384.68,116.07,384.75,126.79z"/>
</g>
<g>
	<path class="st1" d="M317.86,85.14h-53.67V32h53.67V85.14z M264.47,84.86h53.12V32.27h-53.12V84.86z"/>
	<path class="st1" d="M371.26,85.14h-53.67V32h53.67V85.14z M317.86,84.86h53.12V32.27h-53.12V84.86z"/>
	<path class="st1" d="M317.86,138h-53.67V84.86h53.67V138z M264.47,137.73h53.12V85.14h-53.12V137.73z"/>
	<path class="st1" d="M371.26,138h-53.67V84.86h53.67V138z M317.86,137.73h53.12V85.14h-53.12V137.73z"/>
	<path class="st1" d="M293.76,71.4c-7.49,0-13.58-6.09-13.58-13.58c0-7.49,6.09-13.58,13.58-13.58c7.49,0,13.58,6.09,13.58,13.58
		C307.35,65.3,301.25,71.4,293.76,71.4z M293.76,44.5c-7.34,0-13.31,5.97-13.31,13.31s5.97,13.31,13.31,13.31
		s13.31-5.97,13.31-13.31S301.1,44.5,293.76,44.5z"/>
	<path class="st1" d="M294.14,74.76h-18.59V57.1h18.59V74.76z M275.82,74.48h18.04V57.37h-18.04V74.48z"/>
	<path class="st1" d="M345.24,71.4c-7.49,0-13.58-6.09-13.58-13.58c0-7.49,6.09-13.58,13.58-13.58c7.49,0,13.58,6.09,13.58,13.58
		C358.82,65.3,352.73,71.4,345.24,71.4z M345.24,44.5c-7.34,0-13.31,5.97-13.31,13.31s5.97,13.31,13.31,13.31
		s13.31-5.97,13.31-13.31S352.57,44.5,345.24,44.5z"/>
	<path class="st1" d="M363.7,57.6h-18.59V39.94h18.59V57.6z M345.38,57.33h18.04V40.21h-18.04V57.33z"/>
	<path class="st1" d="M345.24,127.04c-7.49,0-13.58-6.09-13.58-13.58c0-7.49,6.09-13.58,13.58-13.58c7.49,0,13.58,6.09,13.58,13.58
		C358.82,120.95,352.73,127.04,345.24,127.04z M345.24,100.15c-7.34,0-13.31,5.97-13.31,13.31c0,7.34,5.97,13.31,13.31,13.31
		s13.31-5.97,13.31-13.31C358.55,106.12,352.57,100.15,345.24,100.15z"/>
	<path class="st1" d="M344.92,113.25h-18.59V95.58h18.59V113.25z M326.6,112.97h18.04V95.86H326.6V112.97z"/>
	<g>
		<path class="st1" d="M291.65,97.09c0.83,0,1.56,0.08,2.19,0.23c0.63,0.15,1.18,0.35,1.64,0.61c0.46,0.25,0.85,0.53,1.18,0.85
			c0.33,0.32,0.59,0.64,0.79,0.97c0.48,0.76,0.74,1.64,0.79,2.62v3.73c0,1.5-0.29,2.55-0.88,3.12c-0.59,0.58-1.57,0.87-2.96,0.87
			c-0.37,0-0.65,0.05-0.85,0.16c-0.2,0.11-0.34,0.27-0.42,0.47c-0.09,0.21-0.14,0.45-0.15,0.74c-0.01,0.28-0.02,0.6-0.02,0.95v6.87
			h-4.55v-6.87c0-0.65,0.01-1.23,0.03-1.72c0.02-0.49,0.14-0.89,0.34-1.21c0.21-0.32,0.54-0.55,1-0.7c0.46-0.15,1.11-0.23,1.96-0.23
			c0.41,0,0.75-0.08,1.01-0.25c0.26-0.16,0.46-0.39,0.61-0.67c0.14-0.28,0.23-0.59,0.28-0.93c0.04-0.34,0.07-0.69,0.07-1.06v-3.27
			c-0.02-0.63-0.11-1.2-0.26-1.7c-0.15-0.44-0.38-0.83-0.69-1.18c-0.31-0.35-0.76-0.52-1.37-0.52h-0.33c-0.52,0-0.93,0.14-1.23,0.43
			c-0.29,0.28-0.52,0.61-0.67,0.97c-0.15,0.36-0.25,0.73-0.28,1.1c-0.03,0.37-0.05,0.63-0.05,0.79v3.86h-4.58v-3.86h0.03
			c0-0.22,0.06-0.61,0.18-1.16c0.12-0.56,0.4-1.13,0.83-1.72c0.44-0.59,1.08-1.11,1.95-1.57c0.86-0.46,2.04-0.69,3.55-0.69H291.65z
			 M293.13,123.82c0,0.65-0.23,1.21-0.69,1.67c-0.46,0.46-1.02,0.69-1.68,0.69c-0.64,0-1.18-0.23-1.63-0.69
			c-0.45-0.46-0.68-1.01-0.68-1.67c0-0.63,0.22-1.17,0.68-1.62c0.45-0.45,0.99-0.67,1.63-0.67c0.66,0,1.22,0.22,1.68,0.67
			C292.89,122.65,293.13,123.19,293.13,123.82z"/>
	</g>
</g>
</svg>
