<?xml version="1.0" encoding="utf-8"?>
<!-- Generator: Adobe Illustrator 27.2.0, SVG Export Plug-In . SVG Version: 6.00 Build 0)  -->
<svg version="1.0" id="katman_1" xmlns="http://www.w3.org/2000/svg" xmlns:xlink="http://www.w3.org/1999/xlink" x="0px" y="0px"
	 viewBox="0 0 410 169" style="enable-background:new 0 0 410 169;" xml:space="preserve">
<style type="text/css">
	.st0{fill:#ED6E06;}
	.st1{enable-background:new    ;}
	.st2{fill:#FFFFFF;}
	.st3{fill:none;stroke:#FFFFFF;stroke-miterlimit:10;}
	.st4{fill:#B3CE13;}
	.st5{fill:#F2F9AC;}
	.st6{fill:#0C71EA;}
	.st7{fill:#B6DBFF;}
	.st8{fill:#F2B906;}
	.st9{fill:#FFE8A9;}
	.st10{fill:#FFDBC0;}
	.st11{fill:#EE3F6C;}
	.st12{fill:#FFCADC;}
	.st13{fill:#AD0AEA;}
	.st14{fill:#EBC0FF;}
	.st15{fill:#09C4C9;}
	.st16{fill:#C5FFFF;}
	.st17{fill:#414042;}
	.st18{fill:url(#SVGID_1_);}
</style>
<path class="st15" d="M346.43,166.81H64.09c-31.67,0-57.34-25.67-57.34-57.34V59.7c0-31.67,25.67-57.34,57.34-57.34h282.34
	c31.67,0,57.34,25.67,57.34,57.34v49.78C403.77,141.14,378.1,166.81,346.43,166.81z"/>
<g>
	<path class="st2" d="M93.88,95.74h-5.31l-4.59-8.71h-3.3v8.71h-4.59V77.29c0-1.76,0.41-3.04,1.22-3.84c0.81-0.8,2.18-1.2,4.09-1.2
		h3.89c2.33,0,4.19,0.71,5.56,2.13s2.06,3.22,2.06,5.4c0,1.58-0.41,2.95-1.24,4.11s-1.84,1.95-3.05,2.39L93.88,95.74z M87.39,82.19
		c0.63-0.67,0.94-1.51,0.94-2.51c0-1-0.3-1.81-0.91-2.43c-0.61-0.62-1.41-0.92-2.43-0.92h-2.28c-1.36,0-2.04,0.69-2.04,2.08v4.79H85
		C85.97,83.2,86.76,82.87,87.39,82.19z"/>
	<path class="st2" d="M111.46,87.33h-10.99c0,1.72,0.27,2.97,0.81,3.76c0.54,0.79,1.62,1.19,3.25,1.19c1.06,0,1.84-0.33,2.34-1.01
		c0.51-0.67,0.76-1.31,0.76-1.93h3.86c0,2.35-0.63,4.08-1.9,5.18c-1.27,1.1-2.94,1.65-5.02,1.65s-3.69-0.3-4.83-0.89
		c-2.35-1.21-3.53-4.42-3.53-9.64c0-3.1,0.67-5.37,2.01-6.81c1.34-1.44,3.39-2.16,6.14-2.16c4.77,0,7.16,2.65,7.16,7.95
		C111.53,85.19,111.51,86.09,111.46,87.33z M100.57,84.39h7.06c0-1.45-0.28-2.51-0.83-3.17c-0.55-0.66-1.39-0.99-2.52-0.99
		c-1.13,0-2.04,0.34-2.71,1.01C100.91,81.91,100.57,82.96,100.57,84.39z"/>
	<path class="st2" d="M128.36,90.53v0.49c-0.13,1.65-0.83,2.89-2.1,3.73c-1.26,0.84-2.84,1.25-4.73,1.25
		c-2.79,0-4.75-0.51-5.88-1.52c-1.03-0.92-1.55-2.29-1.55-4.09V90H118c0,1.01,0.26,1.71,0.79,2.08c0.53,0.38,1.44,0.56,2.74,0.56
		c1.76,0,2.64-0.64,2.64-1.91c0-1.05-0.31-1.76-0.92-2.11c-0.29-0.18-0.65-0.31-1.09-0.4l-3.33-0.56c-2.9-0.46-4.36-2.28-4.36-5.44
		c0-1.76,0.64-3.13,1.93-4.11c1.29-0.98,2.92-1.47,4.9-1.47c4.51,0,6.76,1.95,6.76,5.84v0.43h-3.73c-0.04-1.03-0.32-1.74-0.83-2.11
		c-0.51-0.37-1.22-0.56-2.13-0.56c-0.91,0-1.6,0.18-2.06,0.54c-0.46,0.36-0.69,0.76-0.69,1.2c0,1.25,0.51,1.97,1.52,2.15l3.99,0.73
		C126.95,85.38,128.36,87.27,128.36,90.53z"/>
	<path class="st2" d="M147,85.81c0,4.91-1.26,8.04-3.79,9.4c-1.03,0.55-2.3,0.83-3.79,0.83l-3.17-2.05v7.36h-4.29V77.03h8.45
		c2.55,0,4.29,0.72,5.21,2.16C146.54,80.63,147,82.84,147,85.81z M142.71,86.47c0-3.72-1.19-5.58-3.56-5.58h-2.9v8.75l2.9,1.88
		c1.28,0,2.19-0.4,2.74-1.21C142.44,89.51,142.71,88.23,142.71,86.47z"/>
	<path class="st2" d="M164.99,95.74h-4.29V83.93c0-2.02-0.79-3.04-2.38-3.04l-4.09,1.62v13.23h-4.29V70.93h4.29v8.22l5.44-2.44
		c1.94,0,3.31,0.55,4.11,1.65c0.8,1.1,1.2,2.64,1.2,4.62V95.74z"/>
	<path class="st2" d="M183.34,87.33h-10.99c0,1.72,0.27,2.97,0.81,3.76c0.54,0.79,1.62,1.19,3.25,1.19c1.06,0,1.84-0.33,2.34-1.01
		c0.51-0.67,0.76-1.31,0.76-1.93h3.86c0,2.35-0.63,4.08-1.9,5.18c-1.27,1.1-2.94,1.65-5.02,1.65s-3.69-0.3-4.83-0.89
		c-2.35-1.21-3.53-4.42-3.53-9.64c0-3.1,0.67-5.37,2.01-6.81c1.34-1.44,3.39-2.16,6.14-2.16c4.77,0,7.16,2.65,7.16,7.95
		C183.4,85.19,183.38,86.09,183.34,87.33z M172.45,84.39h7.06c0-1.45-0.28-2.51-0.83-3.17c-0.55-0.66-1.39-0.99-2.52-0.99
		c-1.13,0-2.04,0.34-2.71,1.01C172.78,81.91,172.45,82.96,172.45,84.39z"/>
	<path class="st2" d="M195.35,95.77l-3.73-0.03c-1.65,0-2.9-0.48-3.75-1.45c-0.85-0.97-1.27-2.12-1.27-3.46v-19.9h4.29v8.32
		l5.12-2.38c1.96,0,3.4,0.53,4.32,1.58c0.81,0.95,1.32,2.48,1.52,4.59c0.07,0.88,0.1,1.97,0.1,3.27
		C201.95,92.62,199.75,95.77,195.35,95.77z M191.98,92.08h2.11c2.38,0,3.56-1.92,3.56-5.78c0-1.96-0.18-3.32-0.54-4.09
		s-1.15-1.16-2.36-1.16l-3.86,2.08v7.43C190.89,91.44,191.26,91.95,191.98,92.08z"/>
	<path class="st2" d="M219.9,87.33h-10.99c0,1.72,0.27,2.97,0.81,3.76c0.54,0.79,1.62,1.19,3.25,1.19c1.06,0,1.84-0.33,2.34-1.01
		c0.51-0.67,0.76-1.31,0.76-1.93h3.86c0,2.35-0.63,4.08-1.9,5.18c-1.26,1.1-2.94,1.65-5.02,1.65c-2.08,0-3.69-0.3-4.83-0.89
		c-2.35-1.21-3.53-4.42-3.53-9.64c0-3.1,0.67-5.37,2.01-6.81c1.34-1.44,3.39-2.16,6.14-2.16c4.77,0,7.16,2.65,7.16,7.95
		C219.97,85.19,219.94,86.09,219.9,87.33z M209.01,84.39h7.06c0-1.45-0.28-2.51-0.83-3.17s-1.39-0.99-2.52-0.99
		s-2.04,0.34-2.71,1.01C209.35,81.91,209.01,82.96,209.01,84.39z"/>
</g>
<g>
	<g>
		<g>
			<path class="st16" d="M23.08,45.66c0,0-0.34-9.33,3.56-14.68c3.9-5.35,14.64-11.34,18.22-7.56c3.84,4.48-10.41,8.52-11.06,18.47
				C33.55,49,24.71,55.13,23.08,45.66z"/>
			<path class="st16" d="M26.96,53.93c0,0-4.86,1.56-3.9,5.87c0.97,4.3,2.27,6.65,5.63,4.95C32.06,63.05,30.11,51.74,26.96,53.93z"
				/>
		</g>
		<path class="st16" d="M384.75,126.79c0,0-3.01,20.35-11.1,23.69c-8.09,3.34-12.31,2.38-11.58-2.82
			c0.72-5.19,9.24-2.41,12.92-13.88C378.66,122.31,384.68,116.07,384.75,126.79z"/>
	</g>
</g>
<g>
	<g>
		<path class="st17" d="M266.69,35.79c0.08,0.09,0.5,0.6,0.66,0.57c0.12-0.14,0.23-0.28,0.35-0.42c-0.01-0.15-0.04-0.31-0.08-0.45
			c-0.07-0.23-0.18-0.47-0.31-0.69c-0.38-0.42-1.04-1-1.2-0.3C266.02,34.88,266.48,35.53,266.69,35.79z"/>
		<path class="st2" d="M314.8,136.2c0.1,0,0.2,0.01,0.3,0.01c0.55,0,1.1-0.05,1.64-0.12c7.8-3.2,5.4-12.55,2.56-18.46
			c-3.07-6.4-8.2-11.53-13.92-15.61c-5.25-3.75-11.19-7.05-17.63-8.13c-5.72-0.96-15.8-0.04-15.13,8c0.01,0.1-0.03,0.17-0.09,0.22
			c0.24,0.88,0.52,1.74,0.85,2.59c0.37,0.94,0.83,1.82,1.31,2.69c3.3,5.67,8.41,11.55,14.92,16.73
			C298.11,130.88,307.24,135.06,314.8,136.2z"/>
		
			<linearGradient id="SVGID_1_" gradientUnits="userSpaceOnUse" x1="-87.9197" y1="-1054.8514" x2="-43.0124" y2="-1054.8514" gradientTransform="matrix(0.7823 0.6229 -0.6229 0.7823 -332.0104 925.6727)">
			<stop  offset="0" style="stop-color:#FFFFFF"/>
			<stop  offset="1" style="stop-color:#E5E5E6"/>
		</linearGradient>
		<path class="st18" d="M283.14,81.57c0.24-0.57,0.29-1.17,0.11-1.76c-0.01-0.05,0.05-0.09,0.08-0.04c0.45,0.76,0.33,1.78-0.12,2.57
			c0.09,0,0.17,0,0.26,0c0.11-0.15,0.21-0.3,0.28-0.48c0.14-0.36,0.18-0.71,0.13-1.09c-0.01-0.06,0.09-0.09,0.11-0.03
			c0.12,0.46,0.1,1.03-0.11,1.49c0.12-0.2,0.25-0.4,0.32-0.62c0.17-0.5,0.24-1.08,0.15-1.6c-0.01-0.05,0.07-0.07,0.09-0.02
			c0.21,0.58,0.29,1.12,0.13,1.73c-0.05,0.2-0.13,0.44-0.24,0.66c0.04,0,0.07,0,0.11,0.01c0.69-1.68,0.19-3.39-0.32-5.07
			c-0.23-0.76-0.47-1.52-0.72-2.28c-1.05-0.16-1.99-0.57-2.53-1.58c-0.75-1.44-1.24-3.06-1.89-4.55c-1.36-3.15-2.83-6.26-4.36-9.33
			c-1.53-3.08-3.11-6.13-4.72-9.17c-1.53-2.91-3.1-5.81-4.34-8.85c-0.62-1.53-1.2-3.11-1.55-4.72c-0.05-0.24-0.1-0.49-0.13-0.74
			c-0.3,3.02,1.06,6.21,2.27,8.86c3,6.6,6.63,12.9,9.68,19.48c1.76,3.8,3.48,7.62,5.19,11.44c0.72,1.6,2.76,4.74,1.55,6.47
			c0.03,0,0.05,0,0.08,0C282.85,82.09,283.02,81.85,283.14,81.57z"/>
		<g>
			<path class="st2" d="M329.96,133.11c3.24-4.06,3.2-10.3-0.11-17.56c-3.25-7.14-9.3-14.46-17.02-20.6
				c-7.72-6.15-16.2-10.4-23.89-11.97c-1.29-0.26-2.53-0.44-3.72-0.55c1.16-3.13-0.88-6.92-1.86-9.83
				c-1.49-4.42-3.02-8.83-4.59-13.22c-2.69-7.49-5.16-15.3-8.73-22.44c-0.82-1.63-2.24-5.39-4.66-4.92c-2.56,0.5-2.53,4.49-2.26,6.4
				c0.47,3.32,2.05,6.43,3.52,9.39c1.83,3.71,3.77,7.37,5.56,11.1c1.76,3.68,3.45,7.39,5.11,11.12c0.92,2.06,1.84,4.13,2.75,6.2
				c0.67,1.51,2.63,4.45,1.61,6.12c-4.32,0.24-7.72,1.75-9.87,4.44c-0.59,0.74-1.07,1.55-1.44,2.42c-2.48,4.41-2.6,10.18-1.36,14.96
				c2.89,11.16,10.85,20.87,20.39,27.08c6.53,4.25,14.08,7.41,21.89,8.06c6.18,0.51,13.52-0.61,17.92-5.39
				C329.48,133.68,329.73,133.41,329.96,133.11z M274.7,107.38c-0.47-0.88-0.94-1.75-1.31-2.69c-0.33-0.85-0.62-1.71-0.85-2.59
				c0.06-0.05,0.09-0.12,0.09-0.22c-0.66-8.04,9.41-8.95,15.13-8c6.44,1.08,12.37,4.38,17.63,8.13c5.72,4.08,10.86,9.21,13.92,15.61
				c2.83,5.91,5.23,15.26-2.56,18.46c-0.54,0.07-1.09,0.12-1.64,0.12c-0.1,0-0.2-0.01-0.3-0.01c-7.56-1.14-16.69-5.32-25.19-12.08
				C283.11,118.93,277.99,113.05,274.7,107.38z M266.7,33.39c0.32,0.2,0.63,0.72,0.84,1.02c0.51,0.73,0.95,1.55,1.36,2.33
				c0.78,1.46,1.47,2.98,2.12,4.5c2.84,6.65,5.34,13.48,7.78,20.29c1.2,3.35,2.35,6.71,3.48,10.08c0.34,1.01,0.67,2.02,1,3.04
				c-0.88-0.25-1.7-0.55-2.18-1.44c-0.39-0.71-0.65-1.5-0.96-2.25c-0.65-1.59-1.34-3.16-2.05-4.72c-2.56-5.65-5.44-11.15-8.22-16.7
				c-1.3-2.59-2.65-5.17-3.76-7.85c-0.56-1.35-1.05-2.72-1.42-4.13c-0.31-1.19-0.53-2.44-0.2-3.61
				C264.91,33.21,265.61,32.71,266.7,33.39z M312.15,95.81c15.56,12.39,23.17,28.82,16.95,36.63c-0.87,1.09-1.97,1.96-3.26,2.61
				c1.76-1.22,3.05-2.9,3.87-4.88c0.02-0.05-0.06-0.09-0.08-0.04c-0.86,1.9-2.35,3.51-4.09,4.65c-0.68,0.45-1.42,0.82-2.18,1.12
				c1.85-0.98,3.44-2.55,4.46-4.23c0.04-0.06-0.05-0.13-0.09-0.07c-0.98,1.5-2.41,2.74-3.98,3.59c-1.03,0.56-2.09,0.88-3.19,1.12
				c0.3-0.1,0.59-0.21,0.86-0.32c1.68-0.69,3.19-1.81,4.25-3.3c0.03-0.04-0.03-0.08-0.06-0.05c-1.25,1.44-2.79,2.48-4.59,3.11
				c-0.19,0.07-0.38,0.13-0.57,0.18c1.06-0.48,2.04-1.14,2.78-1.91c0.05-0.05-0.03-0.14-0.09-0.09c-1.31,1.21-2.85,1.78-4.48,2.2
				c1.26-0.43,2.37-1.1,3.42-1.96c0.06-0.05-0.01-0.14-0.07-0.09c-1.23,0.87-2.71,1.48-4.19,1.82c5.31-2.74,5.39-8.99,3.89-14.29
				c-3.34-11.84-14.37-20.83-25.15-25.82c-5-2.31-10.74-3.81-16.26-2.87c-3.64,0.62-7.7,3.1-8.26,6.87
				c-0.22-1.43-0.31-2.89-0.23-4.34c0.1-1.86,0.28-4.07,1.8-5.35c0.06-0.05-0.01-0.14-0.07-0.09c-1.47,1.09-1.93,2.83-2.13,4.57
				c-0.18,1.56-0.16,3.15,0.02,4.72c-0.16-1.22-0.22-2.45-0.2-3.68c0.07-3.22,0.81-6.44,3.31-8.65c0.04-0.03,0-0.09-0.05-0.07
				c-2.79,1.79-3.69,5.21-3.8,8.34c-0.02,0.61-0.01,1.21,0.01,1.82c-0.61-3.78-0.02-7.1,1.94-9.56
				C278.87,79.68,296.59,83.42,312.15,95.81z M306.94,137.9c-13.06-2.84-25.18-11.37-32.21-22.73c-3.73-6.04-6.62-13.8-5.33-20.93
				c-0.01,3.01,0.83,6.44,2.51,10.13c3.25,7.14,9.3,14.46,17.02,20.6c7.72,6.15,16.2,10.4,23.89,11.97c3.08,0.63,5.89,0.8,8.36,0.53
				C316.69,138.84,311.94,138.98,306.94,137.9z"/>
			<path class="st2" d="M284.68,87.54c0.18-0.08,0.33-0.21,0.46-0.38c0.49-0.43,0.71-1.31,0.19-1.77c-0.7-0.62-1.44,0.04-1.71,0.77
				C283.36,86.86,283.83,87.91,284.68,87.54z M284.68,85.62c0.22,0,0.36,0.09,0.43,0.29c0.06,0.16,0.07,0.34,0.05,0.51
				c-0.08,0.28-0.24,0.53-0.45,0.68c-0.06,0.03-0.11,0.07-0.17,0.1c-0.16-0.05-0.32-0.11-0.49-0.16c-0.05-0.06-0.08-0.25-0.09-0.32
				c-0.03-0.25,0.04-0.47,0.18-0.68C284.29,85.82,284.42,85.62,284.68,85.62z"/>
			<path class="st2" d="M281.64,87.8c0.18-0.08,0.33-0.21,0.46-0.38c0.49-0.43,0.71-1.31,0.19-1.77c-0.7-0.62-1.44,0.04-1.71,0.77
				C280.32,87.12,280.78,88.17,281.64,87.8z M281.64,85.88c0.22,0,0.36,0.09,0.43,0.29c0.06,0.16,0.07,0.34,0.05,0.51
				c-0.08,0.28-0.24,0.53-0.45,0.68c-0.06,0.03-0.11,0.07-0.17,0.1c-0.16-0.05-0.32-0.11-0.49-0.16c-0.05-0.06-0.08-0.25-0.09-0.32
				c-0.03-0.25,0.04-0.47,0.18-0.68C281.24,86.08,281.38,85.87,281.64,85.88z"/>
			<path class="st2" d="M266.4,35.89c0.3,0.4,1.25,1.33,1.59,0.46c0.24-0.61-0.12-1.3-0.56-1.8c-0.3-0.51-0.85-0.99-1.38-0.65
				C265.4,34.31,266.08,35.48,266.4,35.89z"/>
		</g>
	</g>
	<g>
		<path class="st3" d="M323.01,82.35c-0.53,0.16-1.27,0.35-2.22,0.59c-1.07,0.27-1.82,0.47-2.23,0.59c0.14,0.42,0.4,1.21,0.78,2.35
			c0.32,0.98,0.57,1.76,0.74,2.34c0.12,0.41-0.61,0.84-2.17,1.3c-1.52,0.45-2.31,0.54-2.39,0.28c-0.19-0.64-0.42-1.48-0.69-2.51
			c-0.38-1.41-0.61-2.24-0.67-2.5c-2.7,0.89-4.13,1.35-4.28,1.4c-0.19,0.06-0.33-0.08-0.42-0.4c-0.03-0.1-0.15-0.71-0.37-1.82
			c-0.17-0.63-0.34-1.27-0.5-1.94c0.05-0.18,0.16-0.3,0.35-0.36c0.51-0.15,1.17-0.33,1.99-0.54c1.09-0.29,1.76-0.46,2-0.52
			c-0.29-0.91-0.59-1.88-0.9-2.92l-0.5-1.7c-0.06-0.2,0.05-0.34,0.32-0.42c0.38-0.11,0.95-0.29,1.7-0.54
			c0.75-0.24,1.31-0.42,1.68-0.53c0.51-0.15,0.79-0.14,0.84,0.04c0.15,0.52,0.37,1.31,0.65,2.39c0.28,1.07,0.49,1.87,0.65,2.4
			c2.21-0.7,3.72-1.17,4.52-1.4c0.22-0.06,0.36,0,0.41,0.18c0.03,0.11,0.17,0.77,0.39,1.97c0.16,0.43,0.32,1.09,0.48,1.98
			C323.16,82.22,323.11,82.32,323.01,82.35z"/>
	</g>
	<g>
		<path class="st3" d="M347.77,71.27c0.9,3.06,0.7,6-0.6,8.82c-1.14,2.52-3.27,4.29-6.38,5.32c-0.6,0.2-2.25,0.7-4.96,1.5
			c-0.51,0.15-1.28,0.36-2.31,0.63c-1.03,0.27-1.8,0.48-2.31,0.63c-0.3,0.09-0.49,0.01-0.56-0.23c-0.34-1.14-0.8-2.87-1.39-5.19
			c-0.59-2.32-1.05-4.05-1.39-5.19c-0.35-1.19-0.93-2.97-1.72-5.33c-0.79-2.36-1.36-4.13-1.71-5.32c-0.06-0.22,0.05-0.39,0.34-0.52
			c0.71-0.3,1.91-0.7,3.6-1.2c3.2-0.95,5.29-1.51,6.26-1.7c2.54-0.48,4.65-0.42,6.34,0.16c1.59,0.55,3.01,1.55,4.26,3.01
			C346.42,68.06,347.27,69.59,347.77,71.27z M341.8,73.04c-0.52-1.76-1.47-3.04-2.85-3.84c-1.4-0.84-2.97-1-4.72-0.49
			c-1.6,0.47-2.34,0.92-2.21,1.35c0.18,0.61,0.44,1.54,0.79,2.78c0.34,1.24,0.6,2.16,0.79,2.78c0.18,0.6,0.46,1.51,0.83,2.71
			c0.38,1.2,0.66,2.11,0.84,2.73c0.13,0.45,1.03,0.42,2.69-0.07c1.8-0.53,3.03-1.55,3.71-3.04C342.3,76.52,342.34,74.89,341.8,73.04
			z"/>
		<path class="st2" d="M373.89,75.15c0.06,0.19-0.04,0.36-0.27,0.5c-0.29,0.18-1.24,0.5-2.86,0.98c-1.49,0.44-2.45,0.68-2.9,0.72
			c-0.37,0.03-0.67-0.14-0.88-0.5c-0.8-1.39-1.31-2.11-1.54-2.16c-0.19-0.02-1.59,0.35-4.21,1.12c-1.77,0.52-2.69,0.85-2.78,0.97
			c-0.13,0.22-0.16,0.83-0.1,1.84c0.06,0.92-0.04,1.46-0.3,1.61c-0.33,0.19-1.5,0.58-3.52,1.17c-1.59,0.47-2.43,0.55-2.52,0.25
			c-0.08-0.27,0.11-3.94,0.58-11c0.51-7.64,0.77-11.84,0.79-12.59c0.01-0.43,0.1-0.67,0.26-0.72c0.28-0.08,0.72-0.18,1.32-0.31
			c0.6-0.12,1.05-0.22,1.34-0.31c0.28-0.08,0.69-0.22,1.22-0.42c0.53-0.2,0.94-0.34,1.21-0.42c0.2-0.06,0.43,0.06,0.7,0.35
			c0.83,0.94,3.42,4.24,7.77,9.91C371.58,71.88,373.81,74.87,373.89,75.15z M358.64,64.21c-0.08,0.52-0.16,1.62-0.23,3.3
			c-0.08,1.79-0.08,2.82,0,3.1c0.06,0.19,0.4,0.2,1.03,0.04c0.33-0.07,0.86-0.22,1.6-0.44c0.69-0.2,1.04-0.4,1.06-0.59
			c0.01-0.06-0.01-0.13-0.03-0.23c-0.1-0.34-0.62-1.22-1.55-2.63C359.61,65.42,358.99,64.57,358.64,64.21z"/>
	</g>
</g>
</svg>
