<?xml version="1.0" encoding="utf-8"?>
<!-- Generator: Adobe Illustrator 27.2.0, SVG Export Plug-In . SVG Version: 6.00 Build 0)  -->
<svg version="1.0" id="katman_1" xmlns="http://www.w3.org/2000/svg" xmlns:xlink="http://www.w3.org/1999/xlink" x="0px" y="0px"
	 viewBox="0 0 410 169" style="enable-background:new 0 0 410 169;" xml:space="preserve">
<style type="text/css">
	.st0{fill:#ED6E06;}
	.st1{enable-background:new    ;}
	.st2{fill:#FFFFFF;}
	.st3{fill:none;stroke:#FFFFFF;stroke-miterlimit:10;}
	.st4{fill:#B3CE13;}
	.st5{fill:#F2F9AC;}
	.st6{fill:#0C71EA;}
	.st7{fill:#B6DBFF;}
	.st8{fill:#F2B906;}
	.st9{fill:#FFE8A9;}
	.st10{fill:#FFDBC0;}
	.st11{fill:#DD05A0;}
	.st12{fill:#FFC0F0;}
	.st13{fill:#EE3F6C;}
	.st14{fill:#FFCADC;}
	.st15{fill:#AD0AEA;}
	.st16{fill:#EBC0FF;}
	.st17{fill:#09C4C9;}
	.st18{fill:#C5FFFF;}
	.st19{fill:#414042;}
	.st20{fill:url(#SVGID_1_);}
	.st21{fill:none;}
</style>
<path class="st11" d="M346.43,166.81H64.09c-31.67,0-57.34-25.67-57.34-57.34V59.7c0-31.67,25.67-57.34,57.34-57.34h282.34
	c31.67,0,57.34,25.67,57.34,57.34v49.78C403.77,141.14,378.1,166.81,346.43,166.81z"/>
<g>
	<path class="st2" d="M96.85,76.74h-5.31l-4.59-8.71h-3.3v8.71h-4.59V58.29c0-1.76,0.41-3.04,1.22-3.84c0.81-0.8,2.18-1.2,4.09-1.2
		h3.89c2.33,0,4.19,0.71,5.56,2.13s2.06,3.22,2.06,5.4c0,1.58-0.41,2.95-1.24,4.11c-0.82,1.15-1.84,1.95-3.05,2.39L96.85,76.74z
		 M90.36,63.19c0.63-0.67,0.94-1.51,0.94-2.51c0-1-0.3-1.81-0.91-2.43c-0.61-0.62-1.41-0.92-2.43-0.92h-2.28
		c-1.36,0-2.05,0.69-2.05,2.08v4.79h4.32C88.94,64.2,89.73,63.87,90.36,63.19z"/>
	<path class="st2" d="M114.86,76.74h-4.29V64.93c0-2.02-0.79-3.04-2.38-3.04l-4.09,1.62v13.23h-4.29V51.93h4.29v8.22l5.44-2.44
		c1.94,0,3.31,0.55,4.11,1.65c0.8,1.1,1.21,2.64,1.21,4.62V76.74z"/>
	<path class="st2" d="M132.85,57.9l-7.16,20.95c-0.33,0.95-0.76,1.68-1.29,2.21c-0.88,0.88-2.11,1.32-3.7,1.32h-2.01v-3.86h1.32
		c0.62,0,1.07-0.1,1.37-0.31c0.3-0.21,0.55-0.62,0.78-1.24l0.33-0.92l-5.68-18.15h4.52L124.7,71l3.63-13.1H132.85z"/>
	<path class="st2" d="M143.44,76.74h-2.67c-1.63,0-2.87-0.48-3.71-1.45c-0.85-0.97-1.27-2.12-1.27-3.46v-9.9h-1.82v-3.27h1.82v-3.7
		h4.29v3.7h3.04v3.27h-3.04v9.64c0,1.03,0.49,1.55,1.48,1.55h1.88V76.74z"/>
	<path class="st2" d="M161.56,76.74h-4.29V64.93c0-2.02-0.79-3.04-2.38-3.04l-4.09,1.62v13.23h-4.29V51.93h4.29v8.22l5.45-2.44
		c1.94,0,3.3,0.55,4.11,1.65c0.8,1.1,1.21,2.64,1.21,4.62V76.74z"/>
	<path class="st2" d="M190.07,76.74h-4.29V65.03c0-1.17-0.14-1.98-0.41-2.44c-0.28-0.46-0.75-0.69-1.44-0.69l-3.86,1.62v13.23h-4.29
		V65.03c0-2.09-0.73-3.14-2.18-3.14l-3.53,1.62v13.23h-4.29V57.9h3.2l0.99,2.24l4.95-2.44c1.72,0,3.01,0.84,3.89,2.51l6.14-2.51
		c1.72,0,3,0.58,3.84,1.73c0.85,1.16,1.27,2.71,1.27,4.67V76.74z"/>
	<path class="st2" d="M196.87,50.7c1.03,0,1.7,0.16,2.01,0.48c0.31,0.32,0.46,0.99,0.46,2.01s-0.16,1.69-0.48,2.01
		c-0.32,0.32-0.99,0.48-2.01,0.48s-1.69-0.17-2.01-0.49c-0.32-0.33-0.48-1-0.48-2.01c0-1.01,0.16-1.68,0.48-2
		C195.16,50.86,195.83,50.7,196.87,50.7z M198.98,76.74h-4.29V58.59h4.29V76.74z"/>
	<path class="st2" d="M213.4,69.84l3.89-0.03c-0.02,0.18-0.04,0.5-0.07,0.96s-0.04,0.78-0.05,0.94c-0.01,0.17-0.04,0.42-0.08,0.78
		c-0.04,0.35-0.09,0.61-0.15,0.78c-0.06,0.17-0.13,0.38-0.21,0.64c-0.4,1.14-1.47,2.05-3.23,2.71c-1.12,0.4-2.29,0.59-3.51,0.59
		c-1.22,0-2.33-0.2-3.32-0.59c-0.99-0.4-1.77-0.9-2.34-1.52c-1.3-1.36-1.95-3.92-1.95-7.67s0.65-6.31,1.95-7.67
		c0.57-0.62,1.35-1.12,2.34-1.52c0.99-0.4,2.09-0.59,3.3-0.59c2.38,0,4.18,0.59,5.41,1.78s1.85,2.84,1.85,4.95h-3.89
		c0-0.97-0.24-1.69-0.73-2.16c-0.48-0.47-1.38-0.71-2.69-0.71c-1.31,0-2.18,0.41-2.61,1.22s-0.64,2.04-0.64,3.66v1.72
		c0,2.62,0.51,4.22,1.52,4.82c0.46,0.29,1.07,0.43,1.81,0.43s1.36-0.07,1.83-0.21c0.47-0.14,0.81-0.39,1.02-0.74
		c0.21-0.35,0.35-0.7,0.41-1.04C213.33,71,213.38,70.5,213.4,69.84z"/>
	<path class="st2" d="M66.85,111.74h-4.59v-23.5h4.59V111.74z"/>
	<path class="st2" d="M86.62,111.74h-4.29V99.7c0-1.08-0.22-1.82-0.66-2.21s-1.06-0.59-1.85-0.59l-3.86,1.62v13.23h-4.29V92.9h3.2
		l0.99,2.24l5.28-2.44c1.47,0,2.76,0.54,3.84,1.63c1.09,1.09,1.63,2.68,1.63,4.77V111.74z"/>
	<path class="st2" d="M98.96,111.74h-2.67c-1.63,0-2.87-0.48-3.71-1.45c-0.85-0.97-1.27-2.12-1.27-3.46v-9.9h-1.81v-3.27h1.81v-3.7
		h4.29v3.7h3.04v3.27h-3.04v9.64c0,1.03,0.5,1.55,1.49,1.55h1.88V111.74z"/>
	<path class="st2" d="M116.64,103.33h-10.99c0,1.72,0.27,2.97,0.81,3.76c0.54,0.79,1.62,1.19,3.25,1.19c1.06,0,1.84-0.33,2.34-1.01
		c0.51-0.67,0.76-1.31,0.76-1.93h3.86c0,2.35-0.63,4.08-1.9,5.18c-1.26,1.1-2.94,1.65-5.02,1.65c-2.08,0-3.69-0.3-4.83-0.89
		c-2.35-1.21-3.53-4.42-3.53-9.64c0-3.1,0.67-5.37,2.01-6.81c1.34-1.44,3.39-2.16,6.14-2.16c4.77,0,7.16,2.65,7.16,7.95
		C116.71,101.19,116.69,102.09,116.64,103.33z M105.75,100.39h7.06c0-1.45-0.28-2.51-0.83-3.17s-1.39-0.99-2.52-0.99
		s-2.04,0.33-2.71,1.01C106.09,97.91,105.75,98.96,105.75,100.39z"/>
	<path class="st2" d="M124.73,111.74l-4.29,0.03V86.93h4.29V111.74z"/>
	<path class="st2" d="M133.47,111.74l-4.29,0.03V86.93h4.29V111.74z"/>
	<path class="st2" d="M140.27,85.7c1.03,0,1.71,0.16,2.01,0.48c0.31,0.32,0.46,0.99,0.46,2.01c0,1.02-0.16,1.7-0.48,2.01
		s-0.99,0.48-2.01,0.48c-1.02,0-1.7-0.17-2.01-0.5c-0.32-0.33-0.48-1-0.48-2.01s0.16-1.68,0.48-2
		C138.56,85.86,139.24,85.7,140.27,85.7z M142.38,111.74h-4.29V93.59h4.29V111.74z"/>
	<path class="st2" d="M156.41,93.03l4.29-0.26v18.12c0,2.09-0.59,3.69-1.77,4.8c-1.18,1.11-2.92,1.67-5.23,1.67
		c-1.78,0-3.34-0.35-4.69-1.06c-0.7-0.35-1.26-0.88-1.68-1.58s-0.63-1.54-0.63-2.51l3.99-0.2c0,0.62,0.22,1.05,0.66,1.32
		c0.44,0.26,1.19,0.4,2.26,0.4s1.79-0.26,2.18-0.79c0.38-0.53,0.58-1.29,0.58-2.28l0.17-2.84l-4.62,2.47
		c-2.53,0-4.24-0.86-5.12-2.57c-0.79-1.52-1.19-3.38-1.19-5.58c0-2.62,0.2-4.47,0.59-5.54c0.42-1.19,1.01-2.04,1.78-2.57
		c0.99-0.66,2.29-0.99,3.89-0.99H156.41z M156.41,104.09v-7.2h-3.27c-1.23,0-2.08,0.42-2.54,1.25c-0.46,0.84-0.69,2-0.69,3.5
		c0,1.5,0.24,2.56,0.71,3.19s1.31,0.94,2.52,0.94L156.41,104.09z"/>
	<path class="st2" d="M179.61,103.33h-10.99c0,1.72,0.27,2.97,0.81,3.76c0.54,0.79,1.62,1.19,3.25,1.19c1.06,0,1.84-0.33,2.34-1.01
		c0.51-0.67,0.76-1.31,0.76-1.93h3.86c0,2.35-0.63,4.08-1.9,5.18c-1.26,1.1-2.94,1.65-5.02,1.65c-2.08,0-3.69-0.3-4.83-0.89
		c-2.35-1.21-3.53-4.42-3.53-9.64c0-3.1,0.67-5.37,2.01-6.81c1.34-1.44,3.39-2.16,6.14-2.16c4.77,0,7.16,2.65,7.16,7.95
		C179.67,101.19,179.65,102.09,179.61,103.33z M168.72,100.39h7.06c0-1.45-0.28-2.51-0.82-3.17c-0.55-0.66-1.39-0.99-2.53-0.99
		s-2.04,0.33-2.71,1.01C169.05,97.91,168.72,98.96,168.72,100.39z"/>
	<path class="st2" d="M198.19,111.74h-4.29V99.7c0-1.08-0.22-1.82-0.66-2.21c-0.44-0.4-1.06-0.59-1.85-0.59l-3.86,1.62v13.23h-4.29
		V92.9h3.2l0.99,2.24l5.28-2.44c1.47,0,2.76,0.54,3.84,1.63c1.09,1.09,1.63,2.68,1.63,4.77V111.74z"/>
	<path class="st2" d="M212.11,104.84l3.89-0.03c-0.02,0.18-0.04,0.5-0.07,0.96c-0.02,0.46-0.04,0.78-0.05,0.94
		c-0.01,0.16-0.04,0.42-0.08,0.78c-0.04,0.35-0.09,0.61-0.15,0.78c-0.06,0.17-0.13,0.38-0.21,0.64c-0.4,1.14-1.47,2.05-3.23,2.71
		c-1.12,0.4-2.29,0.59-3.51,0.59c-1.22,0-2.33-0.2-3.32-0.59c-0.99-0.4-1.77-0.9-2.34-1.52c-1.3-1.36-1.95-3.92-1.95-7.67
		s0.65-6.31,1.95-7.67c0.57-0.62,1.35-1.12,2.34-1.52c0.99-0.4,2.09-0.59,3.3-0.59c2.38,0,4.18,0.59,5.41,1.78s1.85,2.84,1.85,4.95
		h-3.89c0-0.97-0.24-1.69-0.73-2.16c-0.48-0.47-1.38-0.71-2.69-0.71c-1.31,0-2.18,0.41-2.61,1.22c-0.43,0.81-0.64,2.04-0.64,3.66
		v1.72c0,2.62,0.51,4.22,1.52,4.82c0.46,0.29,1.07,0.43,1.81,0.43s1.36-0.07,1.83-0.21c0.47-0.14,0.81-0.39,1.02-0.74
		c0.21-0.35,0.35-0.7,0.41-1.04C212.05,106,212.09,105.5,212.11,104.84z"/>
	<path class="st2" d="M233.73,103.33h-10.99c0,1.72,0.27,2.97,0.81,3.76c0.54,0.79,1.62,1.19,3.25,1.19c1.06,0,1.84-0.33,2.34-1.01
		c0.51-0.67,0.76-1.31,0.76-1.93h3.86c0,2.35-0.63,4.08-1.9,5.18c-1.26,1.1-2.94,1.65-5.02,1.65c-2.08,0-3.69-0.3-4.83-0.89
		c-2.35-1.21-3.53-4.42-3.53-9.64c0-3.1,0.67-5.37,2.01-6.81c1.34-1.44,3.39-2.16,6.14-2.16c4.77,0,7.16,2.65,7.16,7.95
		C233.79,101.19,233.77,102.09,233.73,103.33z M222.84,100.39h7.06c0-1.45-0.28-2.51-0.82-3.17c-0.55-0.66-1.39-0.99-2.53-0.99
		s-2.04,0.33-2.71,1.01C223.17,97.91,222.84,98.96,222.84,100.39z"/>
</g>
<g>
	<g>
		<g>
			<path class="st12" d="M23.08,45.66c0,0-0.34-9.33,3.56-14.68c3.9-5.35,14.64-11.34,18.22-7.56c3.84,4.48-10.41,8.52-11.06,18.47
				C33.55,49,24.71,55.13,23.08,45.66z"/>
			<path class="st12" d="M26.96,53.93c0,0-4.86,1.56-3.9,5.87c0.97,4.3,2.27,6.65,5.63,4.95C32.06,63.05,30.11,51.74,26.96,53.93z"
				/>
		</g>
		<path class="st12" d="M384.75,126.79c0,0-3.01,20.35-11.1,23.69c-8.09,3.34-12.31,2.38-11.58-2.82
			c0.72-5.19,9.24-2.41,12.92-13.88C378.66,122.31,384.68,116.07,384.75,126.79z"/>
	</g>
</g>
<g>
	<g>
		<path class="st21" d="M359.32,69.88c-7.01,2.23-13.36,6.19-17.06,11.29c-1.23,1.69-2.62,3.45-3.39,5.3
			c-0.51,1.23-1.67,4.09,0.62,4.73c4.33,1.21,9.05-2.14,12.05-4.08c7.1-4.59,13.22-10.25,16.9-16.81c0.14-0.25,0.28-0.51,0.42-0.76
			c-0.12-0.05-0.25-0.1-0.38-0.15C365.57,68.32,362.16,68.98,359.32,69.88z"/>
		<path class="st21" d="M345.66,68.05c2.24,0.8,4.72,1.12,7.06,0.38c1.82-0.57,3.45-1.41,4.88-2.44c3.09-2.22,5.6-4.99,7.29-7.96
			c2-3.51,3.67-7.52,3.56-11.39c-0.1-3.3-2.25-7.19-6.36-8.72c0.22,0.93-0.09,2.14-0.16,3.01c-0.1,1.36-0.27,2.72-0.32,4.09
			c-0.02,0.74-0.02,1.49-0.02,2.23c1.32,0.23,2.01,1.91,1.68,3.02c-0.21,0.71-0.8,1.57-1.81,1.73c-0.03,0.63-0.04,1.26,0.03,1.89
			c0.02,0.18-0.41,0.33-0.46,0.12c-0.15-0.6-0.2-1.2-0.23-1.8c-0.38,0.26-0.93,0.44-1.36,0.53c-0.96,0.22-1.57,0.18-2.31-0.24
			c-1.51,0.97-3.42,1.61-5.01,2.52c-1.95,1.12-3.84,2.28-5.75,3.45c-2.16,1.33-4.17,2.76-6.17,4.22
			C340.94,64.99,342.57,66.95,345.66,68.05z"/>
		<path class="st21" d="M361.03,90.55c-4.3-0.41-8.8,2.16-11.84,4.2c-3.46,2.31-6.65,5-9.28,7.89c-1.52,1.67-3.17,3.5-3.95,5.46
			c-0.51,1.29-0.8,3.5,1.81,3.02c3.55-0.65,6.7-2.67,9.39-4.43c3.82-2.5,7.36-5.3,10.64-8.21c2.26-2,4.47-4.16,6.46-6.44
			C363.57,91.26,362.53,90.7,361.03,90.55z"/>
		<path class="st2" d="M374.65,39.99c-0.88-2.84-2.75-5.51-6.3-6.82c-3.46-1.28-7.62-1.15-11.09-0.01c-3.76,1.23-6.6,3.71-9.09,6.1
			c-5.31,5.08-9.05,11.77-9.87,18.26c-0.12,0.92-0.16,1.85-0.11,2.76c-1.64,1.08-3.24,2.19-4.82,3.31c-0.85,0.6-1.7,1.21-2.55,1.82
			c0.09-0.16,0.18-0.32,0.25-0.48c0.4-0.87,0.06-1.68-0.6-2.11c0.02-0.02,0.03-0.05,0.04-0.07c0.17-0.67,0.82-1.42,1.08-2.11
			c0.09-0.23,0.17-0.47,0.24-0.7c1.82,0.05,3.82-1.81,4.71-2.78c0.97-1.07,1.77-2.88,0.58-4c0.65-1.05,0.97-2.24,0.87-3.31
			c-0.11-1.12-0.7-2.59-2.29-2.27c0.26-1.21,0.1-2.49-0.36-3.61c-0.34-0.85-1.22-2.14-2.55-2.26c-0.87-0.08-2.03,0.03-2.62,0.55
			c-0.7-1.36-2.2-2.38-4.43-2.44c-1.29-0.03-2.87,0.43-3.54,1.31c-0.3,0.39-0.63,0.98-0.49,1.46c-5.58-1.4-12.51-0.4-16.91,2.29
			c-0.3,0.02-0.56,0.04-0.77,0.06c-2.66,0.24-4.88,1.57-6.57,3.07c-1.84,1.62-3.13,3.71-3.84,5.77c-0.52,1.51-0.67,3.62,0.24,5.17
			c-0.66,0.09-1.14,0.47-1.45,0.92c-0.21-1.81-0.24-3.61,0.04-5.45c0.31-2.02,1.13-4,1.57-6.01c0.13,0.21,0.28,0.41,0.58,0.57
			c0.26,0.14,0.5,0.21,0.79,0.04c0.44-0.26,0.45-0.79,0.4-1.17c-0.04-0.33-0.29-0.67-0.4-1c-0.14-0.38,0.98-0.65,1.28-0.78
			c0.65-0.28,3-0.73,2.66-1.66c-0.29-0.78-1.9-0.33-2.97,0.04c0.86-0.94,1.86-2.1,1.79-3.13c-0.03-0.34-0.54-0.54-0.91-0.34
			c-0.88,0.48-1.59,1.42-2.23,2.22c-0.03-1.11-0.07-2.97-1.22-3.03c-0.62-0.03-0.88,0.55-0.95,0.91c-0.09,0.41,0,0.86,0.03,1.27
			c0.04,0.4-0.03,0.81-0.11,1.21c-0.62-0.7-1.41-1.28-2.47-1.65c-0.51-0.18-1.46,0.13-1.25,0.65c0.18,0.44,0.56,0.71,0.98,1.02
			c0.29,0.21,0.59,0.47,0.87,0.69c1.52,1.2,0.5,1.07,0.47,1.9c-0.03,0.61,0.11,0.98,0.48,1.22c-3.03,5.07-3.15,11.01-2.19,16.43
			c0.93,5.25,3.18,11.2,8.25,15.03c-0.35,0.63-0.69,1.27-1.07,1.89c-0.03,0.08-0.05,0.15-0.07,0.23c0,0.08-0.01,0.15-0.01,0.23
			c-0.04,0.06-0.08,0.13-0.12,0.19c0,0,0,0.01-0.01,0.02c-0.01,0.05-0.04,0.08-0.08,0.12c-1.59,2.45-3.28,4.87-4.62,7.41
			c-0.21-1.01-0.4-2.02-0.57-3.03c-0.75-4.54-2.01-8.9-3.35-13.36c-1.36-4.55-2.54-9.12-3.85-13.67c-0.62-2.16-1.8-4.19-2.75-6.27
			c-0.96-2.11-1.73-4.29-2.45-6.45c-0.04-0.11-0.15-0.12-0.26-0.07c-0.49-1.55-1.28-3.06-2.08-4.51c-1.32-2.4-2.71-4.81-4.22-7.13
			c-0.5-0.77-2.15-3.73-3.83-3.29c-1.45,0.39-1.05,2.15-0.89,3.01c0.35,1.96,0.94,3.88,1.82,5.74c0.6,1.27,1.19,2.51,1.55,3.84
			c0.37,1.37,0.38,2.78,0.7,4.15c0.38,1.65,1.3,3.42,3.84,3.43c0.83,0,1.51-0.27,2.06-0.69c0.68,1.67,0.76,3.45,1.16,5.17
			c0.59,2.53,1.09,5.07,1.8,7.59c0.7,2.49,1.47,4.97,2.03,7.48c0.57,2.56,0.92,5.14,1.41,7.71c0.96,5.01,1.98,10.02,3.36,14.98
			c0.09,0.34,0.2,0.67,0.3,1c0.82,2.18,2,4.23,3.98,5.88c1.81,0.53,3.94,0.09,5.8-0.62c-1.91,5.96-1.65,12.31-1.35,18.38
			c0.19,3.71,0.6,7.41,1.3,11.09c0.36,1.88,0.83,3.74,1.39,5.59c0.4,1.33,0.83,2.92,1.65,4.19c0.06,0.42,0.12,0.83,0.16,1.24
			c0.13,1.43,0.01,2.89,0.42,4.3c0.26,0.89,0.65,1.86,1.76,2.31c0.87,0.36,1.24-0.89,1.33-1.2c0.75-2.66,0.66-5.4,0.23-8.09
			c-0.08-0.5-0.31-1.62-1.23-1.68c-0.11-0.01-0.21-0.01-0.31,0c0.02,0.04,0.03,0.08,0.03,0.14c0,0.02-0.01,0.05-0.01,0.07
			c-0.02-0.03-0.05-0.05-0.08-0.06c-0.13-3.04-0.52-6.11-1.06-9.11c-0.58-3.27-1.67-6.49-1.93-9.79c-0.28-3.48,0.55-7,1.17-10.43
			c0.54-3,1.39-5.96,2.1-8.94c1.35-0.64,2.38-1.67,2.53-2.9c0.1-0.82-0.09-1.53-0.43-2.31c-0.4-0.91-0.53-1.81,0.54-2.5
			c0.62-0.39,1.36-0.71,2.04-1.03c2.19-1.02,4.47-1.93,6.57-3.06c2.02-1.09,3.63-2.53,4.84-4.16c0.61-0.83,0.94-1.61,1.03-2.4
			c0.27-0.3,0.55-0.6,0.84-0.88c1.52-1.46,3.16-2.86,4.72-4.3c3.2-2.95,6.5-5.93,10.21-8.51c1-0.7,1.99-1.41,2.97-2.13
			c0.31,0.83,0.73,1.64,1.3,2.42c1.94,2.65,5.94,4.19,9.86,4.13c3.54-0.06,6.93-2.01,9.29-3.85c2.79-2.18,5.09-4.73,6.77-7.5
			c1.93-3.19,3.43-6.78,3.83-10.29c0.39-3.48-0.34-6.46-3.19-9.25c-1.2-1.17-2.72-2.11-4.57-2.61c-0.52-0.14-1.02,0.29-1,0.65
			c-0.19,0.11-0.31,0.29-0.24,0.48c0.19,0.49,0.06,1.03,0.01,1.52c-0.08,0.72-0.04,1.45-0.09,2.17c-0.09,1.36-0.25,2.71-0.25,4.08
			c0,0.57,0.02,1.14,0.04,1.71c-0.09,0.03-0.18,0.06-0.27,0.1c-0.68-0.13-1.19,0.02-1.8,0.26c-0.65,0.26-1.37,0.43-1.79,0.92
			c-0.31,0.37-0.41,0.84-0.47,1.26c-0.05,0.33,0.07,0.82-0.05,1.17c-0.2-0.01-0.39,0.13-0.44,0.29c-1.92,0.7-3.65,1.59-5.52,2.39
			c-1.98,0.84-3.94,1.79-5.8,2.78c-1.64,0.87-3.21,1.81-4.75,2.78c0.03-3.4,1.27-7,2.4-9.57c1.57-3.56,3.93-6.92,6.86-9.93
			c2.74-2.82,6.17-5.54,10.76-6.44c4.51-0.88,9.47,0.74,11.78,3.77c2.24,2.93,2.55,6.88,2.78,10.19c0.49,7.14-1.48,14.45-4.89,21.13
			c-0.75-0.3-1.62-0.52-2.62-0.63c-2.91-0.33-5.98,0.5-8.59,1.39c-2.78,0.94-5.39,2.19-7.85,3.55c-3.3,1.83-6.14,4.31-8.39,6.88
			c-2.36,2.72-4.87,6.02-5.36,9.31c-0.4,2.73,1.86,4.05,5.26,3.75c4.27-0.37,7.76-2.79,10.89-4.82c6.81-4.41,12.55-9.83,16.42-15.99
			c0.32-0.51,0.62-1.02,0.92-1.54c2.45,2,2.34,5.62,1.78,8.06c-1.04,4.53-3.62,8.84-6.91,12.79c-1.23-1.1-2.98-1.77-5.09-1.65
			c-3.9,0.24-7.57,2.14-10.53,3.95c-3.37,2.06-6.36,4.59-9.01,7.18c-2.48,2.42-5.78,5.56-6.19,8.74c-0.31,2.42,1.64,3.44,4.58,2.81
			c3.3-0.71,6.23-2.57,8.81-4.19c3.72-2.34,7.07-5.04,10.3-7.76c2.61-2.21,5.01-4.55,7.14-7c0.84,2,0.43,4.65-0.18,6.28
			c-1.21,3.22-3.6,6.31-5.85,9.16c-0.49,0.62-1.01,1.23-1.54,1.84c-1.86-1.69-5.62-0.29-7.52,0.85c-2.82,1.69-5.91,4.44-6.05,7.3
			c-0.13,2.68,4.53,0.54,5.67-0.05c2.96-1.55,5.51-3.55,7.72-5.79c0.04,1-0.39,2.13-0.75,2.86c-0.6,1.22-1.45,2.37-2.25,3.52
			c-0.26,0.38,0.41,0.5,0.66,0.19c1.73-2.12,4.27-4.95,3.32-7.6c2.61-2.84,4.73-5.97,6.52-8.97c1.66-2.79,2.84-5.85,1.98-8.91
			c-0.17-0.61-0.45-1.2-0.83-1.73c2.77-3.37,5.03-6.97,6.64-10.81c1.54-3.67,2.26-9.56-1.76-12.25c3.17-5.94,4.94-12.48,5.18-18.83
			C376.11,46.87,375.69,43.34,374.65,39.99z M346.39,58.47c1.9-1.17,3.79-2.33,5.75-3.45c1.59-0.91,3.5-1.55,5.01-2.52
			c0.74,0.42,1.36,0.46,2.31,0.24c0.43-0.1,0.98-0.27,1.36-0.53c0.03,0.6,0.08,1.2,0.23,1.8c0.05,0.22,0.48,0.06,0.46-0.12
			c-0.07-0.63-0.07-1.26-0.03-1.89c1.01-0.15,1.6-1.02,1.81-1.73c0.33-1.11-0.36-2.8-1.68-3.02c0-0.74,0-1.49,0.02-2.23
			c0.04-1.36,0.21-2.72,0.32-4.09c0.07-0.87,0.37-2.08,0.16-3.01c4.12,1.53,6.27,5.42,6.36,8.72c0.12,3.87-1.56,7.88-3.56,11.39
			c-1.69,2.97-4.2,5.74-7.29,7.96c-1.43,1.03-3.06,1.87-4.88,2.44c-2.35,0.74-4.83,0.42-7.06-0.38c-3.09-1.1-4.72-3.06-5.44-5.36
			C342.22,61.24,344.23,59.8,346.39,58.47z M368.44,70.32c-3.68,6.56-9.81,12.22-16.9,16.81c-3,1.94-7.73,5.3-12.05,4.08
			c-2.29-0.64-1.13-3.51-0.62-4.73c0.77-1.85,2.16-3.61,3.39-5.3c3.7-5.1,10.05-9.06,17.06-11.29c2.84-0.9,6.25-1.56,9.15-0.48
			c0.13,0.05,0.26,0.1,0.38,0.15C368.71,69.81,368.58,70.06,368.44,70.32z M357.8,98.49c-3.29,2.91-6.82,5.71-10.64,8.21
			c-2.69,1.76-5.84,3.79-9.39,4.43c-2.61,0.48-2.32-1.73-1.81-3.02c0.78-1.97,2.43-3.79,3.95-5.46c2.63-2.89,5.82-5.57,9.28-7.89
			c3.05-2.04,7.54-4.61,11.84-4.2c1.5,0.14,2.54,0.7,3.23,1.49C362.27,94.33,360.07,96.49,357.8,98.49z M351.67,115.67
			c-2.42,1.86-4.81,2.95-5.34,2.44c-0.53-0.51,1-2.42,3.42-4.28c2.42-1.86,4.81-2.95,5.34-2.44
			C355.61,111.9,354.08,113.82,351.67,115.67z"/>
	</g>
</g>
</svg>
